PathFileType	4	(x/y/z)	S06_PSF_T08
DataRate	CameraRate	NumFrames	NumMarkers	Units	OrigDataRate	OrigDataStartFrame	OrigNumFrames
240	240	6	51	mm	240	102	407
Frame#	Time	Sternum			R.Acromium			L.Acromium			Top.Head			R.ASIS			L.ASIS			R.PSIS			L.PSIS			R.Great.Tro			L.Great.Tro			R.Iliac.Crest			L.Iliac.Crest			V.Sacral			R.Thigh.Upper.Post			R.Thigh.Lower.Ant			R.Thigh.Lower.Post			R.Thigh.Upper.Ant			R.Knee.Lat			R.Knee.Med			R.Shank.Upper.Post			R.Shank.Lower.Ant			R.Shank.Lower.Post			R.Shank.Upper.Ant			R.Ankle.Lat			R.Ankle.Med			R.Heel.Upper			R.Heel.Med			R.Heel.Lat			R.Toe.Lat			R.Toe.Med			R.Toe.Tip			L.Thigh.Upper.Post			L.Thigh.Lower.Ant			L.Thigh.Lower.Post			L.Thigh.Upper.Ant			L.Knee.Lat			L.Knee.Med			L.Shank.Upper.Post			L.Shank.Lower.Ant			L.Shank.Lower.Post			L.Shank.Upper.Ant			L.Ankle.Lat			L.Ankle.Med			L.Heel.Upper			L.Heel.Med			L.Heel.Lat			L.Toe.Lat			L.Toe.Med			L.Toe.Tip			Cervical.Spine			Back			
		X1	Y1	Z1	X2	Y2	Z2	X3	Y3	Z3	X4	Y4	Z4	X5	Y5	Z5	X6	Y6	Z6	X7	Y7	Z7	X8	Y8	Z8	X9	Y9	Z9	X10	Y10	Z10	X11	Y11	Z11	X12	Y12	Z12	X13	Y13	Z13	X14	Y14	Z14	X15	Y15	Z15	X16	Y16	Z16	X17	Y17	Z17	X18	Y18	Z18	X19	Y19	Z19	X20	Y20	Z20	X21	Y21	Z21	X22	Y22	Z22	X23	Y23	Z23	X24	Y24	Z24	X25	Y25	Z25	X26	Y26	Z26	X27	Y27	Z27	X28	Y28	Z28	X29	Y29	Z29	X30	Y30	Z30	X31	Y31	Z31	X32	Y32	Z32	X33	Y33	Z33	X34	Y34	Z34	X35	Y35	Z35	X36	Y36	Z36	X37	Y37	Z37	X38	Y38	Z38	X39	Y39	Z39	X40	Y40	Z40	X41	Y41	Z41	X42	Y42	Z42	X43	Y43	Z43	X44	Y44	Z44	X45	Y45	Z45	X46	Y46	Z46	X47	Y47	Z47	X48	Y48	Z48	X49	Y49	Z49	X50	Y50	Z50	X51	Y51	Z51	

102	0.42083	-928.82	1290.3	324	-1063.3	1493	491.36	-1053	1497.6	139.09	-1021.8	1813.5	319.59	-977.14	1057.8	443.06	-963.24	1054.4	190.27	NaN	NaN	NaN	-1174.8	1078.9	265.61	-1023.1	981.45	493.13	-1070.7	980.4	135.3	-1070.2	1127.5	474.26	-1039.2	1127.7	154.13	-1189.2	1041.4	307.86	-919.23	754.15	482.47	-840.04	702.62	445.45	-898	669.63	464.25	-861.64	790.86	458.23	-839.52	576.96	453.77	-839.47	578.39	325.21	-882.14	353.07	462.11	-822.06	288.39	445.12	-886.69	275.87	450.86	-819.59	364.29	454.45	-857.05	144.2	431.52	-840.83	150.78	346.79	-917.12	96.646	380.94	-903.59	64.979	353.62	-909.62	67.547	417.78	-736.99	70.052	471.04	-702.93	73.636	353.67	-643.58	94.919	402.17	-1046.8	721.43	167.34	-1010.8	635.86	227.79	-1078.3	638.22	186.42	-983.32	723.89	203.35	-1115.4	544.62	204.29	-1088.5	549.96	325.17	-1202.1	324.86	223.26	-1147.1	254.64	226.85	-1218.7	255.75	243.01	-1135.3	323.01	212.61	-1197.8	111.77	248.14	-1181.7	131.97	335.78	-1278.5	79.665	292.11	-1274.8	48.271	321.69	-1271.6	53.678	260.05	-1092.3	45.962	224.16	-1074.3	40.25	344.73	-1000.1	51.489	290.87	-1113	1548.2	314.66	-1174.8	1277.5	307.23
103	0.425	-923.47	1289.6	324.05	-1058	1492.3	491.49	-1047.6	1497	139.22	-1016.7	1812.9	319.87	-971.79	1057.1	443.1	-958.09	1053.6	190.25	NaN	NaN	NaN	-1169.2	1078.2	265.81	-1017.8	980.67	493.23	-1065.6	979.77	135.43	-1064.9	1126.9	474.33	-1034	1127	154.18	-1183.7	1040.8	308.04	-915.53	752.78	482.5	-836.53	700.89	445.4	-894.65	668.16	464.18	-857.72	789.2	458.16	-835.86	575.54	453.57	-835.99	576.87	325.01	-873.01	350.65	461.46	-811.25	287.58	444.43	-875.54	273.39	450.07	-810.79	363.5	453.94	-842.29	142.39	430.38	-825.77	149.66	345.83	-900.85	93.35	379.57	-886.37	62.172	352.17	-892.65	64.288	416.31	-720.22	71.266	469.95	-686.18	76.321	352.8	-627.45	99.039	401.49	-1043.4	720.97	167.43	-1007.9	635.14	227.7	-1075.5	637.9	186.5	-980.03	723.04	203.3	-1113.1	544.46	204.36	-1086.2	549.64	325.2	-1200.9	325.08	223.4	-1146.2	254.63	226.98	-1217.8	256.04	243.16	-1134.1	322.93	212.72	-1197.4	111.95	248.29	-1181.4	132.1	335.93	-1278.4	79.798	292.27	-1274.7	48.361	321.82	-1271.5	53.855	260.19	-1092.2	45.98	224.21	-1074.2	40.138	344.76	-1000.1	51.241	290.93	-1107.7	1547.6	314.79	-1169.4	1276.9	307.27
104	0.42917	-918.1	1288.8	324.11	-1052.7	1491.6	491.63	-1042.1	1496.3	139.36	-1011.6	1812.3	320.16	-966.41	1056.3	443.13	-952.92	1052.8	190.24	NaN	NaN	NaN	-1163.6	1077.5	266.01	-1012.6	979.87	493.33	-1060.5	979.12	135.56	-1059.5	1126.2	474.41	-1028.7	1126.2	154.24	-1178.2	1040.1	308.22	-911.92	751.35	482.6	-833.11	699.07	445.41	-891.4	666.62	464.16	-853.86	787.45	458.14	-832.33	574.04	453.4	-832.61	575.26	324.81	-864.02	348.3	460.79	-800.64	286.87	443.74	-864.55	271.02	449.25	-802.17	362.75	453.43	-827.73	140.79	429.23	-810.93	148.78	344.88	-884.73	90.304	378.17	-869.31	59.649	350.68	-875.83	61.287	414.81	-703.71	72.695	468.83	-669.74	79.273	351.9	-611.67	103.4	400.8	-1040	720.5	167.51	-1004.9	634.42	227.6	-1072.6	637.57	186.58	-976.7	722.17	203.23	-1110.8	544.3	204.43	-1083.8	549.31	325.21	-1199.6	325.3	223.54	-1145.2	254.62	227.12	-1216.8	256.35	243.32	-1132.9	322.85	212.83	-1197	112.14	248.43	-1181	132.23	336.09	-1278.3	79.941	292.45	-1274.6	48.461	321.96	-1271.5	54.044	260.33	-1092.2	45.997	224.27	-1074.1	40.028	344.79	-1000	50.988	290.98	-1102.5	1547	314.94	-1163.9	1276.1	307.33
105	0.43333	-912.71	1288	324.17	-1047.3	1490.8	491.77	-1036.7	1495.6	139.51	-1006.5	1811.6	320.45	-961.02	1055.6	443.16	-947.73	1052	190.24	NaN	NaN	NaN	-1158	1076.8	266.21	-1007.4	979.03	493.45	-1055.3	978.46	135.69	-1054	1125.5	474.5	-1023.4	1125.4	154.3	-1172.6	1039.3	308.41	-908.38	749.85	482.77	-829.75	697.17	445.46	-888.24	665.01	464.18	-850.06	785.62	458.18	-828.93	572.48	453.24	-829.31	573.6	324.61	-855.2	346.03	460.09	-790.24	286.24	443.06	-853.73	268.78	448.4	-793.74	362.05	452.94	-813.37	139.38	428.08	-796.34	148.11	343.93	-868.78	87.504	376.78	-852.46	57.408	349.19	-859.18	58.542	413.29	-687.48	74.329	467.67	-653.64	82.476	351	-596.25	107.97	400.1	-1036.6	720.02	167.56	-1001.9	633.68	227.48	-1069.7	637.23	186.65	-973.33	721.3	203.13	-1108.4	544.14	204.5	-1081.4	548.98	325.21	-1198.3	325.53	223.68	-1144.3	254.62	227.26	-1215.9	256.67	243.48	-1131.6	322.77	212.95	-1196.6	112.36	248.58	-1180.6	132.38	336.24	-1278.2	80.099	292.64	-1274.5	48.575	322.11	-1271.4	54.247	260.49	-1092.1	46.013	224.33	-1074.1	39.92	344.83	-999.95	50.733	291.03	-1097.2	1546.3	315.1	-1158.4	1275.4	307.41
106	0.4375	-907.3	1287.3	324.23	-1041.9	1490.1	491.92	-1031.2	1494.9	139.66	-1001.4	1810.9	320.74	-955.61	1054.8	443.18	-942.52	1051.2	190.26	NaN	NaN	NaN	-1152.4	1076	266.41	-1002.1	978.17	493.57	-1050.1	977.79	135.82	-1048.6	1124.7	474.59	-1018.1	1124.6	154.36	-1167	1038.5	308.6	-904.9	748.31	482.99	-826.46	695.19	445.54	-885.16	663.35	464.25	-846.29	783.72	458.26	-825.65	570.85	453.1	-826.08	571.88	324.41	-846.54	343.83	459.36	-780.06	285.7	442.39	-843.11	266.66	447.52	-785.49	361.4	452.47	-799.23	138.18	426.93	-782.02	147.66	343	-853.04	84.951	375.4	-835.84	55.444	347.69	-842.74	56.051	411.76	-671.55	76.151	466.5	-637.9	85.909	350.09	-581.21	112.73	399.4	-1033.1	719.52	167.59	-998.88	632.94	227.34	-1066.8	636.89	186.71	-969.92	720.43	203.02	-1106	543.97	204.57	-1078.9	548.65	325.21	-1197	325.77	223.82	-1143.3	254.63	227.39	-1214.9	256.99	243.64	-1130.3	322.69	213.06	-1196.2	112.59	248.74	-1180.1	132.55	336.41	-1278.1	80.273	292.83	-1274.5	48.705	322.27	-1271.3	54.467	260.65	-1092.1	46.029	224.4	-1074	39.817	344.86	-999.88	50.474	291.08	-1091.9	1545.7	315.27	-1152.8	1274.6	307.5
107	0.44167	-901.87	1286.5	324.29	-1036.6	1489.3	492.07	-1025.8	1494.2	139.81	-996.25	1810.2	321.03	-950.17	1054	443.2	-937.28	1050.3	190.29	NaN	NaN	NaN	-1146.7	1075.2	266.61	-996.88	977.28	493.69	-1044.9	977.1	135.95	-1043.1	1124	474.68	-1012.7	1123.7	154.44	-1161.3	1037.8	308.8	-901.49	746.72	483.26	-823.22	693.15	445.65	-882.13	661.63	464.34	-842.56	781.76	458.4	-822.47	569.18	452.96	-822.91	570.13	324.19	-838.06	341.71	458.62	-770.1	285.25	441.73	-832.69	264.67	446.62	-777.45	360.79	452.01	-785.35	137.17	425.79	-767.98	147.41	342.08	-837.54	82.639	374.02	-819.47	53.75	346.19	-826.53	53.812	410.24	-655.95	78.146	465.3	-622.55	89.549	349.18	-566.57	117.66	398.7	-1029.7	719.02	167.61	-995.81	632.19	227.19	-1063.8	636.54	186.76	-966.46	719.56	202.88	-1103.5	543.81	204.65	-1076.3	548.31	325.2	-1195.6	326.03	223.97	-1142.3	254.64	227.53	-1213.8	257.33	243.81	-1129	322.63	213.18	-1195.7	112.84	248.9	-1179.7	132.73	336.57	-1278	80.468	293.04	-1274.4	48.855	322.44	-1271.2	54.707	260.82	-1092	46.045	224.47	-1073.9	39.718	344.89	-999.79	50.213	291.12	-1086.6	1545	315.46	-1147.2	1273.8	307.6
